<svg width="512" height="512" viewBox="0 0 512 512" fill="none" xmlns="http://www.w3.org/2000/svg">
<path d="M346 96H166C127.34 96 96 127.34 96 166V346C96 384.66 127.34 416 166 416H346C384.66 416 416 384.66 416 346V166C416 127.34 384.66 96 346 96Z" fill="url(#paint0_linear_2360_1775)"/>
<path d="M176 206H336ZM176 256H296ZM176 306H306Z" fill="black"/>
<path d="M176 206H336M176 256H296M176 306H306" stroke="white" stroke-width="22.5" stroke-linecap="round"/>
<path opacity="0.16" d="M341 348.5C363.091 348.5 381 330.591 381 308.5C381 286.409 363.091 268.5 341 268.5C318.909 268.5 301 286.409 301 308.5C301 330.591 318.909 348.5 341 348.5Z" fill="white"/>
<path d="M341 348.5C363.091 348.5 381 330.591 381 308.5C381 286.409 363.091 268.5 341 268.5C318.909 268.5 301 286.409 301 308.5C301 330.591 318.909 348.5 341 348.5Z" stroke="white" stroke-width="8.75"/>
<path d="M327.25 308.5L336.625 317.875L355.375 297.875" stroke="white" stroke-width="10" stroke-linecap="round" stroke-linejoin="round"/>
<defs>
<linearGradient id="paint0_linear_2360_1775" x1="96" y1="96" x2="416" y2="416" gradientUnits="userSpaceOnUse">
<stop stop-color="#3B82F6"/>
<stop offset="1" stop-color="#8B5CF6"/>
</linearGradient>
</defs>
</svg>
